<svg id="svg" version="1.1" width="400" height="400" viewBox="0 0 400 400" xmlns="http://www.w3.org/2000/svg" xmlns:xlink="http://www.w3.org/1999/xlink"><g id="svgg"><path id="path0" d="M180.861 66.073 C 139.632 69.451,113.279 92.651,107.722 130.463 L 107.042 135.088 106.943 228.628 L 106.845 322.169 145.601 322.169 L 184.358 322.169 184.536 321.451 C 185.049 319.384,184.495 170.482,183.962 167.217 C 181.747 153.657,175.983 144.078,165.072 135.829 C 162.729 134.058,159.931 132.259,153.212 128.206 C 138.546 119.356,133.691 114.580,132.197 107.535 C 128.221 88.775,152.947 80.940,177.608 93.145 C 210.861 109.603,232.647 149.011,226.137 180.931 C 222.221 200.133,210.941 211.866,193.536 214.839 C 189.861 215.467,189.793 215.551,189.793 219.404 L 189.793 222.417 197.528 222.235 C 245.801 221.096,285.003 197.269,298.188 161.054 C 311.704 123.931,293.498 92.307,249.123 75.828 C 229.006 68.358,201.301 64.398,180.861 66.073 " stroke="none" fill="#040404" fill-rule="evenodd"></path><path id="path1" d="M0.000 200.000 L 0.000 400.000 200.000 400.000 L 400.000 400.000 400.000 200.000 L 400.000 0.000 200.000 0.000 L 0.000 0.000 0.000 200.000 M213.876 65.550 C 279.755 70.933,319.076 106.961,308.107 151.890 C 297.975 193.393,255.252 220.767,197.819 222.554 L 191.651 222.746 191.722 225.169 C 191.761 226.501,191.773 248.728,191.750 274.561 L 191.707 321.531 188.198 321.531 C 185.292 321.531,184.689 321.613,184.689 322.010 C 184.689 322.526,118.832 322.747,104.828 322.278 L 98.548 322.067 98.654 228.578 C 98.769 125.717,98.616 133.769,100.645 123.604 C 107.575 88.876,134.936 68.749,178.947 66.005 C 182.193 65.802,186.140 65.529,187.719 65.398 C 192.868 64.970,207.849 65.057,213.876 65.550 M147.765 88.986 C 139.824 92.751,136.905 101.513,140.831 109.804 C 143.389 115.207,147.922 119.097,160.447 126.637 C 181.542 139.338,188.295 147.936,191.423 166.074 C 191.686 167.605,191.810 175.106,191.833 191.069 C 191.866 213.686,191.871 213.875,192.504 213.778 C 192.855 213.725,194.721 212.904,196.651 211.955 C 224.505 198.259,227.222 154.378,202.306 120.597 C 186.893 99.700,159.119 83.603,147.765 88.986 " stroke="none" fill="#fbf7f3" fill-rule="evenodd"></path><path id="path2" d="M181.260 65.930 C 181.567 66.010,182.069 66.010,182.376 65.930 C 182.683 65.849,182.432 65.784,181.818 65.784 C 181.204 65.784,180.953 65.849,181.260 65.930 M177.276 66.254 C 177.673 66.331,178.247 66.328,178.552 66.248 C 178.857 66.168,178.533 66.106,177.831 66.109 C 177.129 66.113,176.880 66.178,177.276 66.254 M167.783 66.996 C 130.166 72.515,106.930 92.107,100.645 123.604 C 98.616 133.769,98.769 125.713,98.653 228.611 L 98.548 322.134 102.783 322.231 L 107.018 322.329 107.018 228.868 C 107.018 126.389,106.907 132.817,108.819 123.764 C 113.239 102.829,125.166 86.389,142.587 77.220 C 143.725 76.620,144.763 75.974,144.891 75.784 C 145.020 75.594,145.128 75.536,145.131 75.656 C 145.133 75.775,146.613 75.176,148.419 74.324 C 154.694 71.364,163.831 68.604,172.116 67.167 L 176.555 66.396 174.163 66.404 C 172.847 66.408,169.976 66.674,167.783 66.996 M153.429 87.704 C 168.586 89.254,189.637 103.421,202.306 120.597 C 227.222 154.378,224.505 198.259,196.651 211.955 C 194.721 212.904,192.855 213.725,192.504 213.778 C 192.153 213.832,191.794 213.952,191.707 214.044 C 191.619 214.137,190.255 214.469,188.676 214.782 C 187.097 215.096,185.554 215.424,185.247 215.512 C 184.762 215.652,184.689 216.105,184.689 219.001 L 184.689 222.329 187.241 222.329 L 189.793 222.329 189.798 219.219 C 189.804 215.303,189.732 215.392,193.324 214.816 C 197.109 214.209,201.276 213.103,201.276 212.705 C 201.276 212.539,201.408 212.484,201.570 212.584 C 201.976 212.835,206.699 210.646,206.699 210.207 C 206.699 210.011,206.824 209.928,206.977 210.023 C 207.351 210.254,211.218 207.454,213.419 205.359 C 214.396 204.429,214.899 203.884,214.537 204.147 C 214.176 204.410,214.787 203.733,215.897 202.642 C 217.202 201.359,217.830 200.515,217.678 200.250 C 217.548 200.025,217.560 199.947,217.704 200.078 C 217.946 200.298,218.356 199.795,219.965 197.301 C 220.420 196.595,220.453 196.420,220.096 196.607 C 219.824 196.749,219.858 196.660,220.174 196.401 C 220.908 195.799,223.701 189.887,223.446 189.475 C 223.337 189.299,223.415 189.155,223.620 189.155 C 223.825 189.155,223.906 188.933,223.802 188.660 C 223.697 188.387,223.736 188.241,223.887 188.335 C 224.249 188.558,225.300 184.791,225.008 184.318 C 224.881 184.113,224.922 184.039,225.099 184.149 C 226.197 184.827,227.639 171.153,227.125 164.925 C 226.559 158.050,223.166 143.183,222.287 143.726 C 222.139 143.818,222.102 143.670,222.207 143.398 C 222.311 143.125,222.242 142.903,222.054 142.903 C 221.865 142.903,221.802 142.664,221.914 142.372 C 222.050 142.017,221.995 141.917,221.748 142.070 C 221.507 142.219,221.445 142.126,221.569 141.803 C 221.674 141.530,221.592 141.308,221.387 141.308 C 221.182 141.308,221.093 141.182,221.188 141.028 C 221.428 140.639,218.456 133.961,218.132 134.161 C 217.988 134.250,217.951 134.112,218.051 133.853 C 218.150 133.594,217.945 133.096,217.595 132.747 C 217.245 132.397,217.022 132.048,217.099 131.971 C 217.688 131.381,209.420 119.423,204.979 114.444 C 200.323 109.223,188.143 98.393,189.292 100.496 C 189.430 100.749,189.205 100.569,188.791 100.095 C 183.787 94.363,166.366 87.731,155.821 87.545 C 152.126 87.479,151.581 87.516,153.429 87.704 M177.671 138.856 C 177.671 138.911,178.138 139.377,178.708 139.892 L 179.745 140.829 178.808 139.793 C 177.935 138.826,177.671 138.609,177.671 138.856 M191.825 175.439 C 191.825 177.281,191.877 178.034,191.942 177.113 C 192.006 176.192,192.006 174.685,191.942 173.764 C 191.877 172.843,191.825 173.596,191.825 175.439 M191.809 181.180 C 191.809 182.321,191.867 182.787,191.937 182.217 C 192.008 181.647,192.008 180.714,191.937 180.144 C 191.867 179.573,191.809 180.040,191.809 181.180 M191.802 207.656 C 191.802 208.620,191.862 209.015,191.935 208.533 C 192.008 208.050,192.008 207.261,191.935 206.778 C 191.862 206.296,191.802 206.691,191.802 207.656 M203.752 222.235 C 204.149 222.311,204.723 222.309,205.028 222.229 C 205.333 222.149,205.008 222.086,204.306 222.090 C 203.604 222.094,203.355 222.159,203.752 222.235 M194.179 222.565 C 195.451 222.626,197.532 222.626,198.804 222.565 C 200.076 222.505,199.035 222.455,196.491 222.455 C 193.947 222.455,192.907 222.505,194.179 222.565 M118.744 322.398 C 119.229 322.471,119.947 322.469,120.339 322.394 C 120.732 322.318,120.335 322.258,119.458 322.260 C 118.581 322.263,118.260 322.325,118.744 322.398 M123.848 322.398 C 124.333 322.471,125.051 322.469,125.443 322.394 C 125.835 322.318,125.439 322.258,124.561 322.260 C 123.684 322.263,123.363 322.325,123.848 322.398 M149.366 322.398 C 149.851 322.471,150.569 322.469,150.961 322.394 C 151.354 322.318,150.957 322.258,150.080 322.260 C 149.203 322.263,148.882 322.325,149.366 322.398 M161.179 322.406 C 162.547 322.466,164.700 322.466,165.964 322.406 C 167.227 322.345,166.108 322.296,163.477 322.297 C 160.845 322.297,159.811 322.346,161.179 322.406 " stroke="none" fill="#e2a5bf" fill-rule="evenodd"></path><path id="path3" d="M199.681 65.375 C 201.874 65.475,203.955 65.457,204.306 65.335 C 204.657 65.212,202.863 65.130,200.319 65.152 L 195.694 65.193 199.681 65.375 M189.553 65.625 C 190.387 65.691,191.750 65.691,192.584 65.625 C 193.417 65.560,192.735 65.506,191.069 65.506 C 189.402 65.506,188.720 65.560,189.553 65.625 M198.485 65.938 C 198.967 66.011,199.757 66.011,200.239 65.938 C 200.722 65.865,200.327 65.805,199.362 65.805 C 198.397 65.805,198.002 65.865,198.485 65.938 M211.886 65.939 C 212.371 66.012,213.089 66.010,213.481 65.934 C 213.874 65.859,213.477 65.799,212.600 65.801 C 211.722 65.803,211.401 65.865,211.886 65.939 M203.429 66.254 C 203.824 66.330,204.470 66.330,204.864 66.254 C 205.259 66.178,204.936 66.116,204.147 66.116 C 203.357 66.116,203.034 66.178,203.429 66.254 M207.097 66.568 C 207.404 66.648,207.907 66.648,208.214 66.568 C 208.521 66.487,208.270 66.422,207.656 66.422 C 207.041 66.422,206.790 66.487,207.097 66.568 M209.968 66.887 C 210.275 66.967,210.778 66.967,211.085 66.887 C 211.392 66.806,211.140 66.741,210.526 66.741 C 209.912 66.741,209.661 66.806,209.968 66.887 M237.389 70.566 C 236.813 70.715,236.419 70.963,236.514 71.117 C 236.609 71.271,236.506 71.479,236.286 71.580 C 236.065 71.680,236.388 71.684,237.002 71.588 C 237.739 71.472,237.972 71.513,237.689 71.709 C 237.362 71.934,237.451 72.053,238.062 72.206 C 239.060 72.457,240.125 72.124,239.521 71.750 C 239.203 71.554,239.199 71.400,239.501 71.036 C 240.007 70.427,238.887 70.178,237.389 70.566 M242.424 72.380 L 241.308 72.587 242.198 72.826 C 242.716 72.965,243.000 73.209,242.876 73.409 C 242.734 73.638,242.902 73.677,243.381 73.525 C 243.883 73.365,244.031 73.407,243.873 73.663 C 243.714 73.921,243.914 73.970,244.551 73.831 C 245.243 73.679,245.342 73.712,244.976 73.973 C 244.681 74.182,244.643 74.314,244.878 74.317 C 245.614 74.327,245.593 73.755,244.826 72.927 C 244.399 72.466,243.935 72.108,243.795 72.131 C 243.655 72.154,243.038 72.266,242.424 72.380 M248.485 74.960 C 248.879 75.215,248.884 75.270,248.511 75.274 C 248.263 75.277,248.135 75.354,248.227 75.446 C 248.318 75.538,248.641 75.518,248.944 75.402 C 249.511 75.184,249.071 74.651,248.325 74.651 C 248.150 74.651,248.222 74.790,248.485 74.960 M259.649 76.396 C 260.088 76.646,260.662 76.851,260.925 76.850 C 261.188 76.850,260.921 76.639,260.330 76.383 C 258.972 75.793,258.607 75.800,259.649 76.396 M255.026 77.827 C 254.910 78.015,255.054 78.057,255.379 77.933 C 255.714 77.804,255.848 77.849,255.724 78.049 C 255.613 78.229,255.884 78.540,256.325 78.741 C 257.444 79.251,257.739 79.178,256.778 78.628 C 255.817 78.079,256.112 78.006,257.232 78.516 C 257.673 78.717,257.981 78.968,257.915 79.074 C 257.850 79.180,258.123 79.266,258.523 79.266 C 259.684 79.266,259.106 78.561,257.493 78.012 C 255.787 77.430,255.294 77.393,255.026 77.827 M267.483 79.894 C 267.823 80.152,268.317 80.362,268.581 80.361 C 268.858 80.361,268.724 80.169,268.262 79.904 C 267.213 79.305,266.695 79.298,267.483 79.894 M263.468 82.126 C 264.252 82.530,265.101 82.781,265.354 82.684 C 265.647 82.571,265.731 82.641,265.586 82.877 C 265.432 83.126,265.536 83.178,265.905 83.036 C 266.274 82.895,266.378 82.947,266.224 83.196 C 266.070 83.445,266.174 83.497,266.543 83.355 C 266.898 83.219,267.014 83.268,266.873 83.496 C 266.754 83.689,266.824 83.951,267.030 84.078 C 267.280 84.233,267.317 84.170,267.142 83.887 C 266.947 83.571,267.031 83.522,267.474 83.692 C 268.034 83.906,268.036 83.886,267.526 83.322 C 267.229 82.994,266.986 82.581,266.986 82.405 C 266.986 82.228,266.663 82.112,266.268 82.147 C 265.873 82.181,265.266 82.063,264.919 81.884 C 264.572 81.705,263.783 81.521,263.165 81.475 L 262.041 81.391 263.468 82.126 M271.596 86.368 C 271.648 86.698,271.907 86.881,272.237 86.821 C 272.543 86.765,272.703 86.862,272.595 87.038 C 272.486 87.213,272.566 87.460,272.771 87.587 C 273.018 87.740,273.059 87.679,272.892 87.408 C 272.723 87.135,272.786 87.048,273.082 87.146 C 273.325 87.228,273.525 87.449,273.525 87.640 C 273.525 87.830,273.622 88.082,273.740 88.200 C 273.858 88.319,273.909 88.223,273.853 87.988 C 273.535 86.664,273.244 86.113,272.926 86.228 C 272.729 86.299,272.330 86.235,272.038 86.086 C 271.635 85.879,271.530 85.946,271.596 86.368 M145.509 88.254 C 144.398 88.517,143.560 88.801,143.645 88.887 C 143.730 88.972,144.352 88.889,145.026 88.701 C 146.593 88.266,147.903 88.247,146.843 88.674 C 146.466 88.826,146.061 89.107,145.943 89.297 C 145.826 89.488,146.242 89.399,146.869 89.100 C 147.621 88.742,147.877 88.475,147.622 88.317 C 147.403 88.182,147.683 88.090,148.263 88.106 C 148.828 88.122,149.385 88.042,149.499 87.927 C 149.856 87.571,147.622 87.753,145.509 88.254 M139.163 90.877 C 138.104 91.561,137.124 92.315,136.985 92.552 C 136.842 92.796,136.997 92.751,137.345 92.448 C 137.683 92.154,138.811 91.401,139.854 90.773 C 140.896 90.146,141.600 89.633,141.418 89.633 C 141.236 89.633,140.222 90.193,139.163 90.877 M144.514 90.248 C 143.748 90.836,143.561 90.851,141.946 90.454 C 141.411 90.322,140.780 90.487,140.032 90.953 L 138.915 91.649 139.771 91.884 C 140.669 92.130,141.997 92.947,141.863 93.171 C 141.820 93.243,142.144 92.896,142.583 92.400 C 143.022 91.904,143.884 91.083,144.498 90.575 C 145.734 89.551,145.746 89.301,144.514 90.248 M279.213 91.705 C 279.213 91.968,279.512 92.434,279.878 92.742 C 280.528 93.289,280.531 93.288,280.007 92.663 C 279.712 92.313,279.473 91.906,279.475 91.760 C 279.477 91.614,279.419 91.434,279.346 91.361 C 279.273 91.288,279.213 91.443,279.213 91.705 M136.207 93.936 C 135.990 94.197,135.705 94.344,135.573 94.262 C 135.441 94.181,135.062 94.431,134.732 94.819 C 134.232 95.405,134.225 95.451,134.689 95.091 C 134.996 94.853,135.247 94.766,135.247 94.896 C 135.247 95.027,135.463 94.955,135.726 94.737 C 136.107 94.420,136.204 94.420,136.204 94.737 C 136.204 95.033,136.313 95.044,136.632 94.779 C 136.868 94.583,137.121 94.458,137.194 94.500 C 137.268 94.543,137.149 94.420,136.931 94.227 C 136.712 94.034,136.627 93.783,136.741 93.669 C 136.855 93.554,136.870 93.461,136.775 93.461 C 136.679 93.461,136.424 93.675,136.207 93.936 M282.137 94.737 C 282.822 95.439,283.455 96.013,283.543 96.013 C 283.630 96.013,283.141 95.439,282.456 94.737 C 281.771 94.035,281.138 93.461,281.051 93.461 C 280.963 93.461,281.452 94.035,282.137 94.737 M139.738 96.252 C 139.558 96.562,139.409 96.633,139.404 96.411 C 139.390 95.862,138.437 95.905,138.437 96.455 C 138.437 96.698,138.623 97.256,138.851 97.695 L 139.265 98.493 139.769 97.093 C 140.297 95.625,140.285 95.313,139.738 96.252 M285.473 97.687 C 286.255 98.521,286.937 99.203,286.988 99.203 C 287.228 99.203,286.975 98.916,285.566 97.594 L 284.051 96.172 285.473 97.687 M133.528 97.102 C 133.675 97.488,133.641 97.638,133.434 97.510 C 133.106 97.308,132.364 98.579,132.391 99.297 C 132.399 99.508,132.587 99.256,132.808 98.736 C 133.077 98.107,133.292 97.920,133.451 98.178 C 133.582 98.390,133.835 98.565,134.012 98.565 C 134.371 98.565,134.076 97.315,133.598 96.810 C 133.405 96.607,133.380 96.713,133.528 97.102 M288.038 100.638 C 288.633 101.252,289.192 101.754,289.280 101.754 C 289.368 101.754,288.952 101.252,288.357 100.638 C 287.762 100.024,287.203 99.522,287.116 99.522 C 287.028 99.522,287.443 100.024,288.038 100.638 M131.814 103.349 C 131.793 104.490,131.875 105.978,131.996 106.656 L 132.217 107.889 132.651 106.417 C 132.890 105.607,133.195 104.944,133.329 104.944 C 133.463 104.944,133.659 104.514,133.764 103.987 C 133.876 103.426,134.156 103.030,134.442 103.030 C 134.709 103.030,134.928 102.815,134.928 102.552 C 134.928 101.957,134.803 101.957,133.661 102.547 C 132.956 102.912,132.709 102.930,132.586 102.627 C 132.498 102.410,132.390 103.094,132.344 104.147 L 132.261 106.061 132.057 103.668 L 131.853 101.276 131.814 103.349 M290.755 103.907 C 291.598 105.004,292.353 105.901,292.434 105.901 C 292.514 105.901,292.204 105.408,291.744 104.806 C 290.780 103.542,290.663 103.078,291.467 103.709 C 291.975 104.107,291.985 104.095,291.581 103.581 C 291.337 103.270,291.061 103.091,290.967 103.185 C 290.873 103.279,290.443 103.031,290.009 102.634 C 289.576 102.238,289.912 102.811,290.755 103.907 M139.096 106.396 C 139.085 106.755,138.912 107.212,138.714 107.411 C 138.301 107.824,138.561 108.772,139.086 108.772 C 139.295 108.772,139.358 108.481,139.243 108.054 C 139.063 107.391,139.085 107.397,139.529 108.134 C 140.130 109.132,140.137 108.977,139.570 107.177 C 139.321 106.388,139.108 106.036,139.096 106.396 M300.957 107.496 C 301.229 108.022,301.524 108.453,301.611 108.453 C 301.699 108.453,301.548 108.022,301.276 107.496 C 301.004 106.970,300.709 106.539,300.622 106.539 C 300.534 106.539,300.685 106.970,300.957 107.496 M295.853 111.643 C 296.125 112.169,296.420 112.600,296.508 112.600 C 296.595 112.600,296.444 112.169,296.172 111.643 C 295.900 111.116,295.606 110.686,295.518 110.686 C 295.430 110.686,295.581 111.116,295.853 111.643 M134.181 112.106 C 133.978 112.636,134.444 113.335,135.061 113.426 C 135.680 113.517,135.947 113.132,135.705 112.500 C 135.467 111.882,134.375 111.599,134.181 112.106 M297.004 112.336 C 297.289 113.003,297.457 113.107,297.774 112.814 C 297.996 112.608,298.096 112.304,297.994 112.137 C 297.891 111.967,297.751 112.009,297.677 112.234 C 297.583 112.516,297.410 112.464,297.092 112.058 C 296.689 111.546,296.680 111.576,297.004 112.336 M297.315 114.354 C 297.315 114.530,297.590 115.175,297.927 115.789 C 298.263 116.404,298.538 116.762,298.538 116.587 C 298.538 116.411,298.263 115.766,297.927 115.152 C 297.590 114.537,297.315 114.179,297.315 114.354 M137.959 117.384 C 139.000 118.437,139.924 119.298,140.012 119.298 C 140.100 119.298,139.319 118.437,138.278 117.384 C 137.236 116.332,136.312 115.470,136.224 115.470 C 136.136 115.470,136.917 116.332,137.959 117.384 M305.274 115.833 C 305.268 115.944,305.473 116.518,305.729 117.109 C 305.985 117.699,306.196 117.967,306.196 117.703 C 306.197 117.244,305.298 115.418,305.274 115.833 M298.587 117.225 C 298.587 117.400,298.792 117.903,299.043 118.341 C 299.294 118.780,299.499 118.995,299.499 118.820 C 299.499 118.644,299.294 118.142,299.043 117.703 C 298.792 117.265,298.587 117.049,298.587 117.225 M140.268 118.714 C 140.486 118.980,140.594 119.267,140.509 119.353 C 140.423 119.438,140.747 119.856,141.227 120.281 C 141.926 120.898,141.986 120.916,141.525 120.368 C 141.125 119.892,141.066 119.645,141.332 119.556 C 141.544 119.485,141.305 119.163,140.793 118.829 C 140.168 118.422,140.000 118.385,140.268 118.714 M143.755 122.195 C 144.151 122.674,146.093 123.895,146.093 123.665 C 146.093 123.591,145.482 123.127,144.737 122.636 C 143.991 122.144,143.550 121.945,143.755 122.195 M300.842 123.764 C 300.842 124.027,300.966 124.530,301.116 124.880 C 301.289 125.283,301.391 125.341,301.391 125.040 C 301.391 124.777,301.267 124.274,301.116 123.923 C 300.944 123.521,300.842 123.462,300.842 123.764 M147.028 124.341 C 147.455 124.688,148.245 125.214,148.783 125.511 L 149.761 126.050 148.984 125.420 C 148.557 125.073,147.768 124.546,147.230 124.250 L 146.252 123.711 147.028 124.341 M301.801 124.561 C 301.790 124.737,301.978 125.670,302.219 126.635 C 302.460 127.600,302.658 128.030,302.660 127.592 C 302.662 126.818,301.841 123.921,301.801 124.561 M153.304 127.776 C 153.213 128.014,153.297 128.308,153.492 128.428 C 153.718 128.567,153.756 128.501,153.598 128.245 C 153.415 127.949,153.528 127.899,154.027 128.057 C 154.400 128.176,154.705 128.136,154.705 127.969 C 154.705 127.471,153.486 127.303,153.304 127.776 M302.775 129.665 C 302.775 130.191,302.890 130.981,303.030 131.419 C 303.279 132.195,303.286 132.190,303.286 131.260 C 303.286 130.734,303.171 129.944,303.030 129.506 C 302.782 128.730,302.775 128.735,302.775 129.665 M165.370 130.110 C 165.490 130.304,165.445 130.463,165.270 130.463 C 165.095 130.463,164.974 130.750,165.000 131.100 C 165.026 131.451,165.233 131.738,165.459 131.738 C 165.684 131.738,165.833 131.577,165.789 131.380 C 165.746 131.182,165.909 130.948,166.153 130.860 C 166.450 130.752,166.513 130.834,166.343 131.108 C 166.177 131.377,166.216 131.440,166.458 131.290 C 166.964 130.978,166.941 130.930,165.989 130.307 C 165.529 130.005,165.251 129.917,165.370 130.110 M302.479 132.695 C 302.479 133.485,302.541 133.808,302.617 133.413 C 302.693 133.018,302.693 132.372,302.617 131.978 C 302.541 131.583,302.479 131.906,302.479 132.695 M163.114 133.491 C 163.014 133.753,162.781 133.875,162.597 133.761 C 162.406 133.643,162.356 133.706,162.481 133.908 C 162.601 134.103,162.888 134.190,163.117 134.102 C 163.346 134.014,163.737 134.200,163.984 134.515 C 164.404 135.050,164.391 135.056,163.796 134.609 C 163.209 134.169,163.192 134.174,163.580 134.670 C 163.821 134.978,164.219 135.126,164.509 135.015 C 164.821 134.895,164.936 134.950,164.809 135.157 C 164.694 135.342,164.842 135.690,165.137 135.929 C 165.598 136.303,165.632 136.297,165.381 135.885 C 165.221 135.622,165.058 135.200,165.020 134.947 C 164.737 133.073,163.606 132.209,163.114 133.491 M309.505 135.885 C 309.505 136.850,309.565 137.245,309.638 136.762 C 309.711 136.280,309.711 135.490,309.638 135.008 C 309.565 134.526,309.505 134.920,309.505 135.885 M302.813 137.480 C 302.813 138.620,302.871 139.087,302.942 138.517 C 303.013 137.947,303.013 137.014,302.942 136.443 C 302.871 135.873,302.813 136.340,302.813 137.480 M167.327 137.124 C 167.240 137.266,167.624 137.799,168.181 138.308 C 168.738 138.818,168.984 138.956,168.728 138.617 C 168.309 138.061,168.316 138.019,168.804 138.202 C 169.172 138.340,169.294 138.271,169.185 137.985 C 168.980 137.451,167.538 136.783,167.327 137.124 M177.210 139.633 C 177.242 140.356,177.398 140.513,178.095 140.525 L 178.942 140.540 178.088 139.648 C 177.618 139.157,177.219 138.756,177.203 138.756 C 177.186 138.756,177.189 139.151,177.210 139.633 M171.262 141.057 C 172.035 141.878,172.825 142.522,173.017 142.487 C 173.208 142.453,173.368 142.651,173.370 142.928 C 173.373 143.205,173.804 143.929,174.327 144.537 C 174.851 145.145,175.159 145.463,175.012 145.244 C 174.866 145.024,174.832 144.705,174.938 144.534 C 175.044 144.363,174.990 144.136,174.820 144.031 C 174.649 143.926,174.599 143.605,174.709 143.319 C 174.842 142.973,174.785 142.875,174.540 143.026 C 174.309 143.169,174.233 143.091,174.337 142.820 C 174.436 142.561,174.144 142.204,173.616 141.940 C 173.127 141.695,172.476 141.287,172.169 141.033 C 171.862 140.779,171.611 140.690,171.611 140.836 C 171.611 140.981,171.216 140.754,170.734 140.332 C 170.251 139.910,170.489 140.236,171.262 141.057 M309.178 141.946 C 309.178 142.735,309.240 143.058,309.316 142.663 C 309.392 142.269,309.392 141.623,309.316 141.228 C 309.240 140.833,309.178 141.156,309.178 141.946 M303.129 142.743 C 303.131 143.796,303.190 144.188,303.261 143.615 C 303.332 143.041,303.331 142.180,303.258 141.701 C 303.185 141.222,303.127 141.691,303.129 142.743 M302.484 142.743 C 302.486 143.620,302.548 143.941,302.621 143.457 C 302.695 142.972,302.693 142.254,302.617 141.862 C 302.541 141.469,302.481 141.866,302.484 142.743 M183.099 145.658 C 183.096 145.858,183.389 146.361,183.750 146.775 C 184.266 147.367,184.336 147.391,184.080 146.890 C 183.526 145.808,183.104 145.278,183.099 145.658 M176.853 148.083 C 177.166 148.564,177.574 148.864,177.761 148.749 C 177.971 148.619,178.023 148.737,177.899 149.060 C 177.789 149.347,177.859 149.679,178.054 149.800 C 178.281 149.940,178.325 149.858,178.176 149.571 C 178.048 149.324,178.172 149.406,178.452 149.752 C 178.732 150.097,178.896 150.550,178.817 150.757 C 178.734 150.974,178.899 151.089,179.209 151.030 C 179.504 150.973,179.852 150.915,179.984 150.902 C 180.703 150.828,180.044 148.644,179.303 148.644 C 179.010 148.644,178.451 148.421,178.061 148.148 C 177.671 147.875,177.352 147.749,177.352 147.868 C 177.352 147.987,177.112 147.887,176.818 147.647 C 176.352 147.264,176.356 147.320,176.853 148.083 M301.510 152.121 C 301.287 153.068,301.166 153.903,301.239 153.977 C 301.479 154.217,302.121 151.861,302.017 151.122 C 301.950 150.651,301.773 151.000,301.510 152.121 M300.678 152.831 C 300.412 154.161,300.670 154.418,300.957 153.110 C 301.078 152.559,301.111 152.041,301.029 151.960 C 300.948 151.878,300.790 152.271,300.678 152.831 M179.927 153.589 C 179.927 154.458,180.759 155.432,180.989 154.832 C 181.113 154.510,181.106 154.354,180.974 154.485 C 180.843 154.617,180.553 154.397,180.331 153.997 C 180.109 153.597,179.927 153.413,179.927 153.589 M306.571 155.215 C 306.388 155.880,306.295 156.481,306.365 156.551 C 306.435 156.621,306.643 156.135,306.826 155.470 C 307.010 154.806,307.102 154.205,307.032 154.135 C 306.962 154.065,306.754 154.551,306.571 155.215 M181.076 155.474 C 180.942 155.822,180.993 155.937,181.218 155.798 C 181.454 155.652,181.498 155.828,181.353 156.340 C 181.179 156.952,181.208 157.006,181.504 156.619 C 181.801 156.230,181.837 156.291,181.698 156.940 C 181.603 157.381,181.673 157.955,181.852 158.216 C 182.102 158.580,182.137 158.504,182.002 157.895 C 181.848 157.205,181.883 157.224,182.261 158.036 L 182.698 158.974 182.920 157.963 C 183.182 156.768,182.875 155.575,182.349 155.752 C 182.145 155.821,181.821 155.665,181.630 155.406 C 181.328 154.996,181.256 155.005,181.076 155.474 M299.704 156.482 C 299.586 156.950,299.552 157.394,299.627 157.469 C 299.702 157.544,299.860 157.223,299.977 156.756 C 300.095 156.288,300.129 155.844,300.054 155.769 C 299.979 155.694,299.821 156.015,299.704 156.482 M304.153 162.228 C 303.843 163.041,303.492 163.548,303.374 163.357 C 303.255 163.165,303.158 163.508,303.158 164.119 C 303.158 164.731,303.186 165.231,303.220 165.231 C 303.375 165.231,304.958 160.992,304.845 160.879 C 304.775 160.809,304.463 161.416,304.153 162.228 M183.301 162.192 C 182.985 163.015,183.098 163.564,183.434 162.839 C 183.647 162.380,183.686 162.605,183.573 163.636 C 183.466 164.612,183.504 164.868,183.693 164.434 L 183.972 163.796 184.130 164.434 C 184.218 164.785,184.230 164.511,184.158 163.827 C 183.987 162.189,183.591 161.435,183.301 162.192 M296.703 164.766 C 296.168 165.939,296.270 166.190,296.848 165.123 C 297.118 164.625,297.279 164.158,297.206 164.085 C 297.133 164.012,296.906 164.319,296.703 164.766 M294.489 169.541 C 293.751 171.030,293.215 172.249,293.299 172.249 C 293.383 172.249,293.949 171.280,294.557 170.096 C 295.165 168.911,295.674 168.158,295.688 168.421 C 295.708 168.801,295.780 168.785,296.038 168.341 C 296.222 168.026,296.248 167.577,296.098 167.308 C 295.904 166.961,295.471 167.562,294.489 169.541 M184.125 168.740 C 184.125 169.354,184.191 169.605,184.271 169.298 C 184.351 168.991,184.351 168.489,184.271 168.182 C 184.191 167.875,184.125 168.126,184.125 168.740 M184.477 173.206 C 184.477 174.522,184.534 175.060,184.602 174.402 C 184.671 173.744,184.671 172.667,184.602 172.010 C 184.534 171.352,184.477 171.890,184.477 173.206 M299.362 172.249 C 299.090 172.775,298.939 173.206,299.027 173.206 C 299.114 173.206,299.409 172.775,299.681 172.249 C 299.953 171.722,300.104 171.292,300.016 171.292 C 299.929 171.292,299.634 171.722,299.362 172.249 M185.131 176.077 C 185.131 178.270,185.182 179.167,185.244 178.070 C 185.306 176.974,185.306 175.179,185.244 174.083 C 185.182 172.986,185.131 173.884,185.131 176.077 M292.344 173.525 C 292.072 174.051,291.921 174.482,292.009 174.482 C 292.097 174.482,292.391 174.051,292.663 173.525 C 292.936 172.998,293.087 172.568,292.999 172.568 C 292.911 172.568,292.617 172.998,292.344 173.525 M292.667 174.156 C 292.301 174.863,292.274 175.104,292.566 175.043 C 293.103 174.932,293.780 174.286,293.780 173.885 C 293.780 173.108,293.127 173.267,292.667 174.156 M290.249 176.954 C 288.789 179.272,285.705 183.423,283.909 185.486 C 282.943 186.596,282.922 186.653,283.744 185.926 C 284.269 185.461,285.010 185.119,285.412 185.155 C 285.809 185.191,286.293 185.030,286.487 184.796 C 286.748 184.482,286.742 184.370,286.464 184.370 C 286.256 184.370,286.175 184.226,286.284 184.051 C 286.392 183.876,286.315 183.732,286.113 183.732 C 285.910 183.732,286.249 183.050,286.867 182.217 C 287.484 181.384,288.108 180.701,288.253 180.699 C 289.020 180.693,289.935 179.605,290.050 178.565 C 290.119 177.939,290.460 177.015,290.809 176.512 C 291.677 175.260,291.930 174.801,291.754 174.801 C 291.672 174.801,290.994 175.770,290.249 176.954 M289.952 178.407 C 289.952 178.461,289.593 178.991,289.155 179.585 C 288.716 180.180,288.357 180.561,288.357 180.432 C 288.357 180.303,288.671 179.773,289.055 179.253 C 289.693 178.391,289.952 178.146,289.952 178.407 M293.477 181.002 C 293.267 181.255,292.905 181.388,292.672 181.299 C 292.440 181.210,292.138 181.317,292.001 181.538 C 291.860 181.766,291.914 181.994,292.126 182.064 C 292.401 182.156,292.408 182.371,292.154 182.881 C 291.769 183.654,293.230 182.070,293.795 181.100 C 294.190 180.425,294.003 180.367,293.477 181.002 M185.119 184.370 C 185.119 185.861,185.174 186.471,185.242 185.726 C 185.309 184.980,185.309 183.760,185.242 183.014 C 185.174 182.269,185.119 182.879,185.119 184.370 M289.330 186.105 C 289.120 186.358,288.780 186.525,288.573 186.477 C 288.367 186.428,288.311 186.451,288.450 186.527 C 288.589 186.603,288.523 186.902,288.303 187.192 C 288.083 187.482,288.364 187.298,288.928 186.782 C 289.491 186.267,289.952 185.801,289.952 185.746 C 289.952 185.521,289.689 185.673,289.330 186.105 M278.942 190.809 C 276.840 192.947,275.348 194.527,275.627 194.321 C 275.907 194.114,276.230 194.015,276.345 194.102 C 276.461 194.188,276.478 194.158,276.385 194.035 C 276.291 193.912,277.760 192.262,279.649 190.367 C 281.538 188.472,283.012 186.922,282.924 186.922 C 282.837 186.922,281.045 188.671,278.942 190.809 M269.605 198.974 C 268.444 199.937,268.549 200.360,270.211 201.405 C 270.990 201.896,271.089 201.892,271.768 201.342 L 272.492 200.756 271.501 199.626 C 270.955 199.005,270.601 198.404,270.714 198.292 C 271.240 197.766,270.547 198.192,269.605 198.974 M185.088 202.073 C 185.092 202.775,185.157 203.025,185.234 202.628 C 185.310 202.231,185.307 201.657,185.227 201.352 C 185.147 201.047,185.085 201.372,185.088 202.073 M263.187 203.475 L 262.419 204.066 263.283 204.632 C 263.769 204.950,264.074 205.387,263.981 205.631 C 263.864 205.934,264.195 205.870,265.081 205.418 C 265.778 205.062,266.348 204.679,266.348 204.566 C 266.348 204.452,266.261 204.446,266.155 204.552 C 266.049 204.658,265.654 204.417,265.278 204.016 C 264.901 203.615,264.394 203.355,264.150 203.439 C 263.880 203.532,263.794 203.451,263.930 203.231 C 264.235 202.736,264.083 202.787,263.187 203.475 M260.263 205.183 C 259.932 206.297,260.033 206.775,260.631 206.932 C 261.138 207.064,261.196 207.171,260.872 207.376 C 260.638 207.524,260.599 207.648,260.784 207.651 C 260.970 207.653,261.401 207.430,261.741 207.153 C 262.082 206.877,262.184 206.740,261.968 206.849 C 261.317 207.178,260.311 206.444,260.447 205.740 C 260.541 205.252,260.384 204.777,260.263 205.183 M254.067 208.672 C 250.519 210.572,249.829 211.026,251.577 210.309 C 251.807 210.215,251.938 210.413,251.909 210.810 C 251.877 211.228,251.517 211.587,250.922 211.794 C 249.761 212.199,249.674 212.200,249.920 211.802 C 250.029 211.627,249.957 211.483,249.761 211.483 C 249.565 211.483,249.497 211.332,249.611 211.148 C 249.725 210.963,249.275 211.040,248.610 211.318 C 247.360 211.840,246.557 212.413,247.687 211.976 C 248.963 211.484,249.679 211.390,249.036 211.800 C 248.726 211.998,248.555 212.295,248.656 212.460 C 248.758 212.624,248.666 212.759,248.451 212.759 C 248.235 212.759,248.135 212.835,248.228 212.928 C 248.527 213.227,253.578 211.087,253.370 210.750 C 253.260 210.572,253.329 210.525,253.522 210.645 C 253.715 210.764,254.347 210.662,254.927 210.418 C 255.966 209.982,255.953 209.977,253.972 210.053 C 252.868 210.096,252.006 210.093,252.058 210.047 C 252.111 210.001,253.230 209.443,254.545 208.807 C 255.861 208.172,256.674 207.832,256.352 208.052 C 254.662 209.208,254.648 209.229,255.601 209.240 C 256.144 209.246,256.415 209.382,256.290 209.586 C 256.036 209.996,258.406 209.037,258.852 208.549 C 259.072 208.308,259.047 208.270,258.772 208.425 C 258.553 208.549,258.373 208.515,258.373 208.349 C 258.373 208.184,258.050 207.959,257.656 207.850 L 256.938 207.651 257.735 207.023 C 258.893 206.110,258.642 206.222,254.067 208.672 M191.344 207.576 C 191.280 208.058,191.312 209.242,191.415 210.207 C 191.589 211.833,191.606 211.769,191.655 209.330 C 191.706 206.709,191.565 205.908,191.344 207.576 M245.614 212.624 L 244.817 213.105 245.614 212.915 C 246.379 212.734,246.386 212.746,245.797 213.218 C 245.459 213.488,245.268 213.796,245.374 213.901 C 245.690 214.218,246.916 213.697,246.695 213.340 C 246.564 213.127,246.761 213.086,247.249 213.224 C 247.770 213.372,247.871 213.345,247.572 213.138 C 247.204 212.883,247.204 212.808,247.572 212.651 C 247.811 212.549,247.576 212.543,247.049 212.638 C 246.315 212.771,246.204 212.732,246.571 212.471 C 247.300 211.953,246.521 212.078,245.614 212.624 M185.008 214.758 C 185.008 215.441,185.115 215.501,186.045 215.343 C 187.066 215.169,187.069 215.165,186.199 215.058 C 185.713 214.998,185.393 214.825,185.486 214.673 C 185.580 214.522,185.510 214.308,185.332 214.198 C 185.147 214.083,185.008 214.324,185.008 214.758 M238.019 215.423 C 236.912 215.808,236.100 216.217,236.216 216.333 C 236.332 216.449,236.090 216.462,235.677 216.362 C 235.083 216.219,235.006 216.265,235.305 216.585 C 235.607 216.910,236.107 216.873,237.856 216.397 C 239.117 216.054,239.769 215.753,239.407 215.681 C 238.876 215.576,238.924 215.494,239.726 215.141 C 241.198 214.492,240.243 214.650,238.019 215.423 M231.145 217.495 C 229.590 217.947,228.451 218.362,228.613 218.416 C 228.776 218.470,230.165 218.150,231.701 217.705 C 233.238 217.260,234.650 216.992,234.840 217.110 C 235.047 217.237,235.094 217.175,234.959 216.955 C 234.670 216.487,234.543 216.505,231.145 217.495 M190.355 222.554 C 190.751 222.630,191.326 222.628,191.631 222.548 C 191.935 222.468,191.611 222.405,190.909 222.409 C 190.207 222.413,189.958 222.478,190.355 222.554 M185.133 229.346 C 185.133 231.715,185.183 232.683,185.245 231.499 C 185.306 230.315,185.306 228.377,185.245 227.193 C 185.183 226.009,185.133 226.978,185.133 229.346 M185.082 238.915 C 185.082 239.530,185.148 239.781,185.228 239.474 C 185.308 239.167,185.308 238.664,185.228 238.357 C 185.148 238.050,185.082 238.301,185.082 238.915 M185.131 249.442 C 185.131 251.635,185.182 252.532,185.244 251.435 C 185.306 250.339,185.306 248.545,185.244 247.448 C 185.182 246.352,185.131 247.249,185.131 249.442 M185.099 288.836 C 185.102 289.713,185.164 290.034,185.237 289.549 C 185.310 289.064,185.308 288.346,185.233 287.954 C 185.157 287.562,185.097 287.959,185.099 288.836 M185.136 302.073 C 185.136 304.793,185.185 305.905,185.245 304.545 C 185.305 303.186,185.305 300.961,185.245 299.601 C 185.185 298.242,185.136 299.354,185.136 302.073 M185.088 311.483 C 185.092 312.185,185.157 312.435,185.234 312.038 C 185.310 311.641,185.307 311.067,185.227 310.762 C 185.147 310.457,185.085 310.781,185.088 311.483 M185.104 318.022 C 185.104 318.987,185.163 319.382,185.236 318.900 C 185.310 318.417,185.310 317.628,185.236 317.145 C 185.163 316.663,185.104 317.057,185.104 318.022 M184.370 321.797 C 184.370 322.069,182.159 322.189,176.156 322.243 L 167.943 322.317 176.055 322.408 C 183.634 322.493,185.290 322.345,184.588 321.643 C 184.468 321.523,184.370 321.592,184.370 321.797 M109.809 322.407 C 111.344 322.465,113.856 322.465,115.391 322.407 C 116.926 322.348,115.670 322.300,112.600 322.300 C 109.530 322.300,108.274 322.348,109.809 322.407 M121.455 322.395 C 121.852 322.471,122.426 322.468,122.731 322.388 C 123.036 322.308,122.711 322.246,122.010 322.250 C 121.308 322.253,121.058 322.318,121.455 322.395 M131.679 322.408 C 134.893 322.460,140.060 322.460,143.163 322.408 C 146.265 322.356,143.636 322.313,137.321 322.313 C 131.005 322.313,128.466 322.356,131.679 322.408 M153.362 322.406 C 154.465 322.468,156.188 322.468,157.190 322.404 C 158.191 322.341,157.289 322.290,155.183 322.291 C 153.078 322.291,152.258 322.343,153.362 322.406 " stroke="none" fill="#eda370" fill-rule="evenodd"></path><path id="path4" d="M191.094 65.193 C 191.196 65.301,194.138 65.533,197.633 65.710 C 210.217 66.346,221.901 67.977,232.900 70.632 C 236.735 71.558,236.791 71.566,236.531 71.144 C 236.296 70.765,238.184 70.246,239.136 70.428 C 239.948 70.583,239.490 71.751,238.600 71.794 C 238.045 71.820,240.839 72.848,242.265 73.142 L 243.222 73.339 242.290 72.915 L 241.357 72.491 242.609 72.338 C 244.153 72.150,244.491 72.266,245.102 73.199 C 245.559 73.897,245.548 73.928,244.882 73.792 C 244.314 73.676,252.938 77.132,255.343 77.984 C 255.855 78.166,255.887 78.142,255.502 77.866 C 255.081 77.563,255.084 77.521,255.525 77.517 C 256.467 77.508,258.959 78.510,259.135 78.969 C 259.281 79.351,259.116 79.343,258.124 78.919 C 255.454 77.776,256.237 78.248,260.925 80.607 C 263.644 81.976,266.912 83.712,268.186 84.467 C 269.460 85.221,270.666 85.737,270.867 85.613 C 271.076 85.484,271.144 85.528,271.027 85.717 C 270.817 86.057,273.299 87.892,273.584 87.607 C 273.672 87.519,273.309 87.222,272.777 86.948 C 272.246 86.673,271.713 86.289,271.593 86.095 C 271.439 85.846,271.550 85.832,271.971 86.049 C 272.299 86.219,272.729 86.299,272.926 86.228 C 273.223 86.120,273.594 86.774,273.801 87.766 C 273.850 88.003,277.742 90.909,278.010 90.909 C 278.108 90.909,278.084 90.730,277.958 90.510 C 277.825 90.279,277.850 90.223,278.019 90.377 C 278.179 90.524,278.312 90.739,278.314 90.856 C 278.323 91.256,278.825 91.866,279.145 91.866 C 279.320 91.866,279.361 91.700,279.236 91.498 C 279.094 91.268,279.149 91.216,279.382 91.360 C 279.587 91.487,279.685 91.704,279.600 91.842 C 279.515 91.980,280.886 93.368,282.648 94.925 C 284.410 96.483,286.934 99.013,288.258 100.549 C 289.582 102.084,290.776 103.272,290.911 103.189 C 291.045 103.106,291.351 103.287,291.591 103.592 C 291.992 104.104,291.979 104.110,291.415 103.668 C 290.555 102.993,290.766 103.377,293.429 107.337 C 304.622 123.979,305.875 145.361,296.816 165.148 C 296.368 166.127,296.073 167.156,296.159 167.435 C 296.246 167.714,296.168 168.158,295.985 168.421 C 295.729 168.788,295.698 168.714,295.851 168.102 C 295.961 167.663,295.316 168.668,294.418 170.335 C 293.521 172.002,292.145 174.395,291.361 175.654 C 290.578 176.913,289.957 178.061,289.982 178.206 C 290.135 179.088,289.824 179.823,289.065 180.374 L 288.198 181.003 288.753 180.214 C 291.056 176.947,289.974 178.053,286.897 182.113 C 285.510 183.942,282.548 187.331,280.314 189.644 C 278.080 191.957,276.357 193.965,276.484 194.105 C 276.611 194.246,276.558 194.272,276.368 194.163 C 276.056 193.986,269.856 198.845,269.856 199.266 C 269.856 199.362,270.056 199.275,270.299 199.073 C 270.815 198.644,272.568 200.440,272.206 201.026 C 271.845 201.611,276.037 198.645,277.011 197.627 C 277.525 197.090,277.834 196.866,277.697 197.129 C 277.560 197.392,277.981 197.033,278.633 196.332 C 279.285 195.630,279.642 195.343,279.426 195.694 C 279.210 196.045,279.659 195.681,280.425 194.885 C 281.191 194.090,281.612 193.731,281.360 194.088 C 281.107 194.445,281.394 194.268,281.997 193.696 C 282.601 193.123,283.490 192.358,283.974 191.996 C 284.458 191.633,284.783 191.221,284.696 191.079 C 284.518 190.792,285.301 190.032,285.533 190.265 C 285.615 190.346,286.678 189.381,287.896 188.121 C 289.115 186.860,289.821 186.068,289.466 186.359 C 288.994 186.748,288.695 186.800,288.350 186.557 C 287.948 186.273,287.954 186.248,288.393 186.387 C 288.888 186.543,292.210 183.960,292.141 183.474 C 292.055 182.870,292.216 182.437,292.468 182.593 C 292.623 182.689,292.946 182.518,293.186 182.213 C 293.566 181.728,293.559 181.706,293.131 182.039 C 292.846 182.261,292.463 182.309,292.213 182.155 C 291.715 181.846,292.065 181.081,292.613 181.281 C 292.816 181.355,293.258 181.183,293.596 180.899 C 293.933 180.615,294.104 180.562,293.975 180.781 C 293.847 181.001,293.798 181.180,293.866 181.180 C 294.121 181.180,296.042 178.309,295.793 178.300 C 295.651 178.294,295.784 178.145,296.089 177.967 C 296.393 177.789,296.798 177.327,296.987 176.940 C 297.293 176.316,297.254 176.326,296.651 177.033 C 296.038 177.751,296.005 177.760,296.318 177.121 C 296.509 176.730,296.913 176.276,297.216 176.112 C 297.815 175.788,299.070 173.844,298.681 173.844 C 298.550 173.844,298.721 173.618,299.062 173.342 C 299.402 173.065,299.490 172.938,299.256 173.058 C 298.941 173.220,298.963 173.020,299.344 172.284 C 299.626 171.738,299.933 171.292,300.027 171.292 C 300.121 171.292,300.108 171.435,300.000 171.611 C 299.892 171.786,299.881 171.930,299.977 171.930 C 300.341 171.930,302.403 167.421,302.194 167.083 C 302.073 166.886,302.118 166.816,302.296 166.926 C 302.798 167.237,303.275 165.842,303.189 164.316 C 303.146 163.555,303.219 163.106,303.350 163.319 C 303.500 163.562,303.796 163.162,304.148 162.242 C 304.455 161.437,304.822 160.849,304.962 160.936 C 305.314 161.154,305.677 159.900,305.394 159.443 C 305.263 159.232,305.303 159.157,305.485 159.270 C 305.663 159.380,305.980 158.889,306.195 158.170 C 306.409 157.456,306.660 156.635,306.751 156.346 C 306.896 155.892,306.870 155.885,306.559 156.300 C 306.131 156.871,306.436 155.188,306.905 154.386 C 307.084 154.080,307.110 154.253,306.977 154.864 C 306.862 155.391,306.849 155.749,306.947 155.661 C 307.410 155.245,308.788 148.798,308.609 147.885 C 308.481 147.230,308.515 147.036,308.710 147.318 C 309.019 147.766,309.511 144.336,309.898 139.036 C 310.130 135.844,309.634 130.017,308.760 125.678 C 308.146 122.634,306.300 116.809,306.232 117.703 C 306.212 117.967,305.985 117.699,305.729 117.109 C 305.139 115.750,305.146 115.386,305.742 116.427 C 306.291 117.389,306.365 117.093,305.854 115.974 C 305.653 115.533,305.368 115.246,305.220 115.338 C 305.072 115.429,305.036 115.284,305.139 115.016 C 305.313 114.562,302.121 108.059,301.370 107.337 C 301.184 107.157,301.200 107.332,301.408 107.735 C 301.611 108.130,301.704 108.453,301.614 108.453 C 301.525 108.453,301.221 108.007,300.939 107.461 C 300.610 106.825,300.567 106.556,300.820 106.713 C 301.480 107.120,299.158 103.903,297.946 102.729 C 297.321 102.124,297.097 101.822,297.448 102.057 C 297.799 102.293,297.576 101.998,296.953 101.402 C 296.330 100.806,296.111 100.534,296.467 100.797 C 296.823 101.061,296.232 100.271,295.155 99.043 C 293.069 96.667,290.271 93.854,290.271 94.135 C 290.271 94.227,289.589 93.666,288.756 92.887 C 285.390 89.741,278.082 84.665,277.446 85.032 C 277.219 85.163,277.140 85.152,277.271 85.008 C 277.877 84.339,262.050 76.216,261.184 76.752 C 260.796 76.992,258.973 76.236,259.171 75.917 C 259.399 75.548,251.122 72.715,250.506 72.951 C 250.177 73.077,250.054 73.027,250.182 72.819 C 250.304 72.623,249.895 72.349,249.198 72.158 C 242.682 70.380,240.380 69.838,239.985 69.990 C 239.693 70.102,239.603 70.034,239.744 69.806 C 239.901 69.552,239.708 69.510,239.096 69.663 C 238.616 69.784,238.300 69.760,238.392 69.610 C 238.622 69.238,235.118 68.550,234.131 68.774 C 233.490 68.919,233.427 68.884,233.812 68.596 C 234.181 68.320,233.999 68.282,233.014 68.433 C 232.231 68.553,231.894 68.518,232.141 68.344 C 232.693 67.955,224.470 66.627,222.807 66.837 C 221.940 66.946,221.732 66.910,222.157 66.724 C 222.982 66.365,219.613 65.992,217.961 66.260 C 217.070 66.405,216.864 66.354,217.060 66.037 C 217.263 65.710,216.680 65.662,214.159 65.800 C 212.266 65.904,211.515 65.874,212.281 65.724 C 214.089 65.370,210.064 65.228,202.233 65.369 C 201.093 65.389,198.078 65.314,195.534 65.202 C 192.990 65.089,190.992 65.085,191.094 65.193 M268.262 79.904 C 268.724 80.169,268.858 80.361,268.581 80.361 C 268.317 80.362,267.823 80.152,267.483 79.894 C 266.695 79.298,267.213 79.305,268.262 79.904 M264.689 81.774 C 265.163 82.013,265.873 82.180,266.268 82.146 C 266.663 82.112,266.986 82.228,266.986 82.405 C 266.986 82.581,267.237 83.006,267.544 83.350 C 268.153 84.033,266.699 83.404,264.336 81.963 C 263.170 81.252,263.404 81.126,264.689 81.774 M145.295 88.642 C 142.347 89.376,140.393 90.277,137.926 92.037 C 136.213 93.259,134.226 95.406,135.584 94.567 C 135.845 94.405,135.904 94.449,135.753 94.693 C 135.626 94.898,135.394 94.987,135.237 94.890 C 134.892 94.677,133.154 97.216,133.446 97.508 C 133.560 97.621,133.661 97.511,133.673 97.262 C 133.684 97.014,133.830 97.154,133.998 97.574 C 134.366 98.494,134.158 98.797,133.520 98.268 C 132.812 97.681,132.044 100.615,132.111 103.646 L 132.165 106.061 132.376 104.147 C 132.493 103.094,132.612 102.416,132.642 102.640 C 132.683 102.955,132.907 102.937,133.636 102.560 C 134.805 101.956,134.928 101.955,134.928 102.552 C 134.928 102.815,134.709 103.030,134.442 103.030 C 134.156 103.030,133.876 103.426,133.764 103.987 C 133.659 104.514,133.470 104.944,133.345 104.944 C 132.606 104.944,132.300 107.488,132.839 109.149 C 134.842 115.325,139.839 119.871,154.226 128.608 C 160.454 132.389,163.186 134.159,165.294 135.777 C 166.294 136.545,167.227 137.141,167.367 137.104 C 167.876 136.967,169.004 137.515,169.185 137.987 C 169.383 138.502,169.095 138.401,167.943 137.550 C 167.592 137.292,168.166 137.889,169.219 138.878 C 170.271 139.867,171.969 141.572,172.992 142.667 C 174.015 143.762,174.746 144.455,174.617 144.209 C 174.462 143.912,174.509 143.839,174.757 143.992 C 174.962 144.119,175.043 144.363,174.938 144.534 C 174.832 144.705,175.357 145.655,176.105 146.646 C 178.665 150.036,181.119 155.200,182.817 160.766 C 183.325 162.432,183.670 163.293,183.582 162.679 C 183.470 161.886,183.511 161.710,183.726 162.072 C 183.892 162.352,184.103 163.213,184.194 163.986 C 184.327 165.109,184.298 165.231,184.054 164.593 C 183.725 163.737,183.720 163.665,184.374 169.378 C 184.545 170.869,184.707 181.922,184.734 193.939 C 184.762 205.957,184.845 215.392,184.918 214.907 C 184.991 214.421,185.188 214.108,185.354 214.211 C 185.520 214.314,185.574 214.532,185.473 214.695 C 185.237 215.076,186.841 215.021,189.474 214.559 L 191.547 214.195 191.510 212.759 C 191.489 211.970,191.482 210.391,191.495 209.250 C 191.739 186.819,191.500 166.426,190.960 163.636 C 189.999 158.674,187.654 151.875,187.082 152.394 C 186.938 152.525,186.922 152.453,187.047 152.236 C 187.174 152.016,186.778 150.952,186.157 149.843 C 185.130 148.010,183.701 145.935,184.232 147.049 C 184.405 147.412,184.320 147.396,183.884 146.986 C 183.568 146.688,183.288 146.164,183.263 145.821 C 183.172 144.593,177.265 137.937,176.620 138.336 C 176.442 138.446,176.385 138.393,176.492 138.220 C 176.868 137.612,166.159 129.608,165.508 130.010 C 165.356 130.104,165.231 130.040,165.231 129.867 C 165.231 129.467,161.689 127.416,161.188 127.526 C 160.982 127.572,160.709 127.439,160.581 127.232 C 160.422 126.975,160.491 126.938,160.796 127.115 C 161.042 127.258,161.162 127.282,161.061 127.168 C 160.636 126.685,155.679 123.858,155.845 124.193 C 155.946 124.396,155.824 124.312,155.574 124.008 C 155.325 123.704,155.027 123.548,154.913 123.663 C 154.798 123.777,154.705 123.722,154.705 123.541 C 154.705 123.359,154.114 122.820,153.392 122.342 C 152.671 121.864,152.181 121.666,152.304 121.901 C 152.427 122.136,152.215 121.970,151.834 121.531 C 151.453 121.093,151.237 120.949,151.356 121.212 C 151.474 121.475,151.259 121.332,150.877 120.893 C 150.496 120.455,150.284 120.311,150.406 120.574 C 150.528 120.837,150.290 120.683,149.876 120.231 C 149.462 119.780,148.477 118.885,147.687 118.244 C 146.178 117.017,142.910 114.009,143.982 114.833 C 144.325 115.096,143.971 114.519,143.196 113.551 C 142.420 112.583,141.502 111.256,141.156 110.601 C 140.809 109.946,140.418 109.410,140.288 109.410 C 140.158 109.410,140.144 109.171,140.256 108.879 C 140.400 108.502,140.342 108.421,140.052 108.600 C 139.746 108.789,139.698 108.662,139.859 108.094 C 140.007 107.573,139.980 107.472,139.772 107.771 C 139.518 108.138,139.441 108.138,139.276 107.771 C 139.169 107.532,139.161 107.659,139.259 108.054 C 139.362 108.471,139.290 108.772,139.086 108.772 C 138.538 108.772,138.324 107.857,138.753 107.340 C 139.284 106.701,139.334 98.058,138.810 97.534 C 138.301 97.025,138.338 96.013,138.867 96.013 C 139.103 96.013,139.463 96.336,139.666 96.730 C 140.027 97.433,140.032 97.433,139.860 96.754 C 139.758 96.349,139.863 95.951,140.114 95.797 C 140.468 95.580,142.100 93.474,142.104 93.228 C 142.108 93.008,140.506 92.085,139.771 91.884 L 138.915 91.649 140.032 90.953 C 140.785 90.484,141.408 90.322,141.946 90.457 C 142.384 90.567,142.918 90.685,143.133 90.720 C 143.347 90.756,143.634 90.896,143.771 91.033 C 143.907 91.169,143.876 91.233,143.700 91.175 C 143.525 91.116,143.381 91.161,143.381 91.274 C 143.381 91.387,143.097 91.818,142.750 92.231 C 142.403 92.644,142.654 92.488,143.308 91.883 C 144.469 90.810,144.820 90.353,144.179 90.750 C 143.428 91.213,143.940 90.611,144.737 90.093 C 145.371 89.680,145.526 89.652,145.295 89.991 C 145.120 90.249,145.209 90.209,145.495 89.901 C 145.780 89.593,146.115 89.443,146.239 89.567 C 146.363 89.691,146.417 89.577,146.358 89.314 C 146.288 88.997,146.488 88.844,146.954 88.859 C 147.342 88.872,147.568 88.741,147.460 88.566 C 147.344 88.379,147.481 88.332,147.795 88.453 C 148.087 88.565,148.325 88.517,148.325 88.347 C 148.325 87.942,147.959 87.978,145.295 88.642 M136.741 93.669 C 136.627 93.783,136.782 94.081,137.086 94.330 C 137.391 94.580,137.470 94.699,137.263 94.596 C 137.056 94.492,136.787 94.569,136.665 94.766 C 136.507 95.021,136.368 95.002,136.183 94.702 C 135.944 94.317,136.353 93.461,136.775 93.461 C 136.870 93.461,136.855 93.554,136.741 93.669 M135.705 112.500 C 136.049 113.399,135.489 113.662,134.890 112.882 C 134.568 112.464,134.301 112.027,134.297 111.912 C 134.284 111.510,135.524 112.028,135.705 112.500 M297.677 112.234 C 297.751 112.009,297.891 111.967,297.994 112.137 C 298.096 112.304,297.996 112.608,297.774 112.814 C 297.457 113.107,297.289 113.003,297.004 112.336 C 296.680 111.576,296.689 111.546,297.092 112.058 C 297.410 112.464,297.583 112.516,297.677 112.234 M141.468 119.563 C 141.370 119.661,140.971 119.409,140.581 119.003 L 139.872 118.264 140.760 118.825 C 141.247 119.133,141.566 119.465,141.468 119.563 M302.660 127.592 C 302.658 128.030,302.460 127.600,302.219 126.635 C 301.978 125.670,301.790 124.737,301.801 124.561 C 301.841 123.921,302.662 126.818,302.660 127.592 M154.705 127.948 C 154.705 128.281,154.603 128.293,153.934 128.036 C 153.201 127.755,153.314 127.302,154.067 127.499 C 154.418 127.591,154.705 127.793,154.705 127.948 M303.286 131.260 C 303.286 132.190,303.279 132.195,303.030 131.419 C 302.890 130.981,302.775 130.191,302.775 129.665 C 302.775 128.735,302.782 128.730,303.030 129.506 C 303.171 129.944,303.286 130.734,303.286 131.260 M166.826 130.933 C 166.826 131.005,166.660 131.165,166.458 131.290 C 166.216 131.440,166.177 131.377,166.343 131.108 C 166.513 130.834,166.450 130.752,166.153 130.860 C 165.909 130.948,165.746 131.182,165.789 131.380 C 165.833 131.577,165.678 131.738,165.444 131.738 C 164.940 131.738,164.862 130.717,165.342 130.405 C 165.646 130.207,166.826 130.627,166.826 130.933 M164.593 133.096 C 164.593 133.141,164.727 133.643,164.890 134.212 C 165.154 135.132,165.128 135.211,164.651 134.933 C 163.496 134.259,162.944 133.680,163.145 133.355 C 163.321 133.070,164.593 132.843,164.593 133.096 M309.638 136.762 C 309.565 137.245,309.505 136.850,309.505 135.885 C 309.505 134.920,309.565 134.526,309.638 135.008 C 309.711 135.490,309.711 136.280,309.638 136.762 M178.088 139.648 L 178.942 140.540 178.095 140.525 C 177.444 140.514,176.557 138.756,177.203 138.756 C 177.219 138.756,177.618 139.157,178.088 139.648 M173.616 141.940 C 174.144 142.204,174.436 142.561,174.337 142.820 C 174.245 143.059,174.312 143.167,174.485 143.060 C 174.659 142.953,174.801 143.009,174.801 143.184 C 174.801 144.015,174.169 143.678,172.887 142.165 C 172.115 141.255,171.764 140.732,172.106 141.003 C 172.448 141.273,173.127 141.695,173.616 141.940 M309.316 142.663 C 309.240 143.058,309.178 142.735,309.178 141.946 C 309.178 141.156,309.240 140.833,309.316 141.228 C 309.392 141.623,309.392 142.269,309.316 142.663 M303.261 143.615 C 303.190 144.188,303.131 143.796,303.129 142.743 C 303.127 141.691,303.185 141.222,303.258 141.701 C 303.331 142.180,303.332 143.041,303.261 143.615 M179.303 148.644 C 180.217 148.644,180.614 150.659,179.765 150.985 C 179.351 151.144,179.020 150.705,177.414 147.871 C 177.322 147.710,177.589 147.817,178.008 148.111 C 178.428 148.404,179.010 148.644,179.303 148.644 M301.746 152.977 C 301.194 154.649,301.044 154.105,301.510 152.121 C 301.773 151.000,301.950 150.651,302.017 151.122 C 302.073 151.520,301.951 152.355,301.746 152.977 M182.349 155.752 C 182.874 155.575,183.182 156.767,182.920 157.960 L 182.699 158.968 181.940 157.101 C 181.095 155.025,181.013 154.620,181.589 155.371 C 181.803 155.649,182.145 155.821,182.349 155.752 M185.244 178.070 C 185.182 179.167,185.131 178.270,185.131 176.077 C 185.131 173.884,185.182 172.986,185.244 174.083 C 185.306 175.179,185.306 176.974,185.244 178.070 M293.780 173.885 C 293.780 174.286,293.103 174.932,292.566 175.043 C 292.274 175.104,292.301 174.863,292.667 174.156 C 293.127 173.267,293.780 173.108,293.780 173.885 M185.242 185.726 C 185.174 186.471,185.119 185.861,185.119 184.370 C 185.119 182.879,185.174 182.269,185.242 183.014 C 185.309 183.760,185.309 184.980,185.242 185.726 M286.284 184.051 C 286.175 184.226,286.267 184.370,286.488 184.370 C 287.146 184.370,286.240 185.118,285.518 185.171 C 284.933 185.214,284.929 185.179,285.434 184.484 C 285.946 183.778,286.685 183.401,286.284 184.051 M266.348 201.537 C 264.681 202.720,262.648 204.076,261.830 204.552 C 260.905 205.090,260.371 205.613,260.419 205.934 C 260.513 206.580,261.445 207.128,261.934 206.826 C 262.162 206.685,262.212 206.741,262.068 206.975 C 261.940 207.182,262.412 207.050,263.116 206.683 C 264.480 205.972,264.569 205.369,263.401 204.744 C 262.785 204.415,262.795 204.379,263.667 203.808 L 264.573 203.213 265.354 204.116 L 266.135 205.020 267.198 204.392 C 267.783 204.047,268.262 203.611,268.262 203.424 C 268.262 203.237,268.355 203.177,268.469 203.291 C 268.583 203.405,268.881 203.250,269.131 202.946 C 269.434 202.576,269.516 202.552,269.378 202.871 C 269.264 203.134,269.403 203.062,269.687 202.711 C 269.971 202.360,270.301 202.120,270.420 202.177 C 270.540 202.234,270.689 202.126,270.752 201.938 C 270.815 201.749,270.747 201.592,270.601 201.588 C 269.766 201.566,268.783 200.366,269.194 199.871 C 269.845 199.085,269.596 199.231,266.348 201.537 M185.234 202.628 C 185.157 203.025,185.092 202.775,185.088 202.073 C 185.085 201.372,185.147 201.047,185.227 201.352 C 185.307 201.657,185.310 202.231,185.234 202.628 M258.447 206.564 C 257.172 207.328,256.911 207.974,257.879 207.974 C 258.113 207.974,258.388 208.190,258.488 208.453 C 258.649 208.872,258.808 208.866,259.785 208.400 C 260.397 208.108,260.809 207.725,260.700 207.549 C 260.581 207.357,260.715 207.310,261.032 207.432 C 261.324 207.544,261.563 207.565,261.563 207.478 C 261.563 207.392,261.190 207.179,260.733 207.005 C 260.189 206.798,259.966 206.526,260.085 206.216 C 260.339 205.555,260.016 205.623,258.447 206.564 M252.925 209.544 C 249.401 211.307,239.039 215.605,238.198 215.652 C 237.979 215.665,238.086 215.798,238.437 215.949 C 239.343 216.338,239.799 216.320,239.234 215.916 C 238.849 215.641,238.894 215.605,239.466 215.730 C 240.421 215.939,242.784 215.316,242.539 214.920 C 242.423 214.732,242.594 214.684,242.965 214.802 C 243.306 214.910,244.149 214.792,244.839 214.539 C 245.528 214.287,245.913 214.070,245.694 214.058 C 245.474 214.045,245.295 213.908,245.295 213.752 C 245.295 213.414,247.511 212.317,247.737 212.543 C 247.824 212.630,247.595 212.796,247.228 212.913 C 246.862 213.029,246.644 213.257,246.745 213.420 C 246.845 213.583,246.752 213.716,246.537 213.716 C 246.322 213.716,246.221 213.791,246.313 213.883 C 246.602 214.173,247.534 213.665,247.327 213.330 C 247.203 213.129,247.396 213.095,247.847 213.238 C 248.385 213.408,248.502 213.363,248.313 213.058 C 248.132 212.766,248.216 212.710,248.609 212.861 C 248.910 212.976,249.076 212.941,248.978 212.783 C 248.880 212.624,248.908 212.434,249.041 212.360 C 249.174 212.286,249.067 212.274,248.804 212.334 C 248.487 212.405,248.534 212.280,248.945 211.963 C 249.626 211.435,250.218 211.320,249.941 211.769 C 249.844 211.926,249.991 212.141,250.267 212.247 C 251.038 212.543,251.249 212.468,250.718 212.089 C 250.333 211.814,250.381 211.778,250.957 211.904 C 251.394 212.000,251.597 211.935,251.476 211.738 C 251.348 211.532,251.551 211.497,252.033 211.642 C 252.716 211.846,252.736 211.826,252.239 211.436 C 251.047 210.505,253.484 209.470,254.983 210.271 C 255.439 210.515,255.521 210.495,255.329 210.185 C 255.152 209.898,255.233 209.839,255.610 209.984 C 255.901 210.096,256.140 210.053,256.140 209.888 C 256.140 209.724,256.392 209.670,256.699 209.769 C 257.170 209.921,257.182 209.895,256.778 209.604 C 256.515 209.415,255.941 209.253,255.502 209.245 C 254.655 209.229,254.731 209.125,256.352 208.073 C 257.524 207.313,256.543 207.734,252.925 209.544 M232.695 217.400 C 231.467 217.812,230.661 218.157,230.904 218.166 C 231.324 218.181,233.426 217.667,234.450 217.299 C 234.713 217.204,235.215 217.155,235.566 217.190 C 236.095 217.243,236.123 217.197,235.726 216.925 C 235.149 216.529,235.413 216.488,232.695 217.400 M184.689 271.944 L 184.689 321.531 188.194 321.531 L 191.699 321.531 191.705 272.089 L 191.710 222.648 190.991 222.609 C 190.595 222.588,189.015 222.523,187.480 222.464 L 184.689 222.357 184.689 271.944 M185.245 231.499 C 185.183 232.683,185.133 231.715,185.133 229.346 C 185.133 226.978,185.183 226.009,185.245 227.193 C 185.306 228.377,185.306 230.315,185.245 231.499 M185.228 239.474 C 185.148 239.781,185.082 239.530,185.082 238.915 C 185.082 238.301,185.148 238.050,185.228 238.357 C 185.308 238.664,185.308 239.167,185.228 239.474 M185.244 251.435 C 185.182 252.532,185.131 251.635,185.131 249.442 C 185.131 247.249,185.182 246.352,185.244 247.448 C 185.306 248.545,185.306 250.339,185.244 251.435 M185.237 289.549 C 185.164 290.034,185.102 289.713,185.099 288.836 C 185.097 287.959,185.157 287.562,185.233 287.954 C 185.308 288.346,185.310 289.064,185.237 289.549 M185.245 304.545 C 185.185 305.905,185.136 304.793,185.136 302.073 C 185.136 299.354,185.185 298.242,185.245 299.601 C 185.305 300.961,185.305 303.186,185.245 304.545 M185.234 312.038 C 185.157 312.435,185.092 312.185,185.088 311.483 C 185.085 310.781,185.147 310.457,185.227 310.762 C 185.307 311.067,185.310 311.641,185.234 312.038 M185.236 318.900 C 185.163 319.382,185.104 318.987,185.104 318.022 C 185.104 317.057,185.163 316.663,185.236 317.145 C 185.310 317.628,185.310 318.417,185.236 318.900 " stroke="none" fill="#fbb582" fill-rule="evenodd"></path></g></svg>